# xmcd CD database file
#
# Track frame offsets:
#	150
#	5249
#	17102
#	28187
#	37364
#	49579
#	57378
#	65991
#	72008
#	80904
#	94097
#	106583
#	118439
#	130735
#	141866
#	153296
#
# Disc length: 2125 seconds
#
# Revision: 0
# Processed by: cddbd v1.5.2PL0 Copyright (c) Steve Scherf et al.
# Submitted via: CDex 1.51
#
DISCID=ec084b10
DTITLE=Nate Gibson and the Gashouse Gang - All The Way Home
DYEAR=2007
DGENRE=Country
TTITLE0=Intro
TTITLE1=All The Way Home
TTITLE2=My Blackbirds Are Bluebirds Now
TTITLE3=Don't Wait
TTITLE4=My Heart Gets Lonely
TTITLE5=Hukilau
TTITLE6=Who Shot Willie
TTITLE7=Intermission
TTITLE8=We Need a Whole Lot More of Jesus (And a Lot Less Rock and Roll)
TTITLE9=Ol' Roy
TTITLE10=Trolley Tour Boogie
TTITLE11=The Auctioneer
TTITLE12=Divorce Me C.O.D.
TTITLE13=Wal-Mart Wino
TTITLE14=My Big 18
TTITLE15=Nate Gibson and the Gashouse Gang - Outro
EXTD=YEAR: 2007
EXTT0=
EXTT1=
EXTT2=
EXTT3=
EXTT4=
EXTT5=
EXTT6=
EXTT7=
EXTT8=
EXTT9=
EXTT10=
EXTT11=
EXTT12=
EXTT13=
EXTT14=
EXTT15=
PLAYORDER=
